<?xml version="1.0" encoding="utf-8"?>
<svg version="1.1" id="svg2" width="400px" height="400px" viewBox="0 0 400 400" xmlns="http://www.w3.org/2000/svg">
  <g id="g8" transform="matrix(1.333333, 0, 0, -1.333333, -997.862, 1392.849609)">
    <g id="g10" transform="scale(0.1)">
      <path d="m 8983.91,9453.16 c -353.96,0 -641.92,-287.96 -641.92,-641.91 0,-354.02 287.96,-642.03 641.92,-642.03 354.02,0 642.02,288.01 642.02,642.03 0,353.95 -288,641.91 -642.02,641.91 z m 0,-1310.95 c -368.84,0 -668.93,300.13 -668.93,669.04 0,368.84 300.09,668.92 668.93,668.92 368.91,0 669.04,-300.08 669.04,-668.92 0,-368.91 -300.13,-669.04 -669.04,-669.04 z m 0,1410.32 c -16.09,0 -32.78,-0.57 -49.58,-1.67 -76.74,-5.07 -151.68,-21.89 -222.75,-49.97 -39.7,-15.72 -78.14,-34.91 -114.23,-57.06 -222.11,-136 -354.71,-372.5 -354.71,-632.58 0,-237.98 115.41,-463 308.73,-601.94 18.08,-13.14 37.43,-25.77 57.57,-37.58 25.38,-15.04 51.91,-28.57 78.91,-40.28 24.27,-10.68 49.52,-20.13 75.14,-28.11 71.21,-22.21 145.53,-33.47 220.92,-33.47 75.39,0 149.71,11.26 220.91,33.47 25.61,7.98 50.88,17.43 75.09,28.08 27.3,11.84 53.87,25.38 79.03,40.28 20.2,11.84 39.55,24.48 57.56,37.57 193.37,139.08 308.79,364.09 308.79,601.98 0,260.64 -133.04,497.34 -355.86,633.15 -0.01,0.01 -0.02,0.01 -0.02,0.02 -36.34,22.23 -74.76,41.33 -114.22,56.77 -70.55,27.88 -145.1,44.59 -221.6,49.67 -16.8,1.1 -33.51,1.67 -49.68,1.67 z m 0,-1509.67 c -78.12,0 -155.15,11.68 -228.96,34.69 -26.57,8.29 -52.79,18.09 -77.91,29.14 -27.97,12.13 -55.52,26.2 -81.82,41.77 -20.85,12.23 -40.94,25.34 -59.68,38.96 -200.29,143.95 -319.91,377.18 -319.91,623.83 0,269.57 137.42,514.66 367.6,655.61 37.41,22.96 77.26,42.85 118.42,59.16 73.68,29.11 151.37,46.53 230.9,51.79 34.86,2.28 68.11,2.27 102.82,0 79.31,-5.27 156.59,-22.59 229.71,-51.49 40.87,-15.98 80.73,-35.8 118.4,-58.84 v 0 c 230.94,-140.77 368.82,-386.09 368.82,-656.23 0,-246.56 -119.62,-479.78 -319.97,-623.87 -18.68,-13.57 -38.77,-26.69 -59.67,-38.95 -26.09,-15.45 -53.67,-29.51 -81.94,-41.76 -25.07,-11.04 -51.29,-20.84 -77.86,-29.12 -73.8,-23.01 -150.83,-34.69 -228.95,-34.69" style="fill:#250008;fill-opacity:1;fill-rule:nonzero;stroke:none" id="path462"/>
      <path d="m 8983.91,9453.16 c -353.96,0 -641.92,-287.96 -641.92,-641.91 0,-354.02 287.96,-642.03 641.92,-642.03 354.02,0 642.02,288.01 642.02,642.03 0,353.95 -288,641.91 -642.02,641.91 z m 0,-1310.95 c -368.84,0 -668.93,300.13 -668.93,669.04 0,368.84 300.09,668.92 668.93,668.92 368.91,0 669.04,-300.08 669.04,-668.92 0,-368.91 -300.13,-669.04 -669.04,-669.04" style="fill:#250008;fill-opacity:1;fill-rule:nonzero;stroke:none" id="path464"/>
      <path d="m 8983.91,9453.16 c -353.96,0 -641.92,-287.96 -641.92,-641.91 0,-354.02 287.96,-642.03 641.92,-642.03 354.02,0 642.02,288.01 642.02,642.03 0,353.95 -288,641.91 -642.02,641.91 z m 0,-1310.95 c -368.84,0 -668.93,300.13 -668.93,669.04 0,368.84 300.09,668.92 668.93,668.92 368.91,0 669.04,-300.08 669.04,-668.92 0,-368.91 -300.13,-669.04 -669.04,-669.04" style="fill:#250008;fill-opacity:1;fill-rule:nonzero;stroke:none" id="path466"/>
      <path d="m 8983.96,9326.39 c -7.46,0 -13.51,6.06 -13.51,13.51 v 126.79 c 0,7.45 6.05,13.5 13.51,13.5 7.46,0 13.5,-6.05 13.5,-13.5 V 9339.9 c 0,-7.45 -6.04,-13.51 -13.5,-13.51" style="fill:#250008;fill-opacity:1;fill-rule:nonzero;stroke:none" id="path468"/>
      <path d="m 8983.96,8142.21 c -7.46,0 -13.51,6.05 -13.51,13.51 v 126.78 c 0,7.46 6.05,13.5 13.51,13.5 7.46,0 13.5,-6.04 13.5,-13.5 v -126.78 c 0,-7.46 -6.04,-13.51 -13.5,-13.51" style="fill:#250008;fill-opacity:1;fill-rule:nonzero;stroke:none" id="path470"/>
      <path d="m 9639.44,8797.69 h -126.79 c -7.46,0 -13.5,6.06 -13.5,13.51 0,7.46 6.04,13.5 13.5,13.5 h 126.79 c 7.46,0 13.51,-6.04 13.51,-13.5 0,-7.45 -6.05,-13.51 -13.51,-13.51" style="fill:#250008;fill-opacity:1;fill-rule:nonzero;stroke:none" id="path472"/>
      <path d="m 8455.26,8797.69 h -126.79 c -7.46,0 -13.5,6.06 -13.5,13.51 0,7.46 6.04,13.5 13.5,13.5 h 126.79 c 7.46,0 13.51,-6.04 13.51,-13.5 0,-7.45 -6.05,-13.51 -13.51,-13.51" style="fill:#250008;fill-opacity:1;fill-rule:nonzero;stroke:none" id="path474"/>
      <path d="m 9447.45,8334.2 c -3.45,0 -6.91,1.32 -9.55,3.96 l -89.65,89.64 c -5.27,5.28 -5.27,13.83 0,19.1 5.27,5.27 13.82,5.27 19.1,0 l 89.65,-89.64 c 5.28,-5.28 5.28,-13.83 0,-19.1 -2.63,-2.64 -6.09,-3.96 -9.55,-3.96" style="fill:#250008;fill-opacity:1;fill-rule:nonzero;stroke:none" id="path476"/>
      <path d="m 8610.11,9171.54 c -3.45,0 -6.91,1.32 -9.55,3.96 l -89.65,89.65 c -5.27,5.28 -5.27,13.82 0,19.1 5.28,5.28 13.82,5.28 19.1,0 l 89.65,-89.65 c 5.28,-5.28 5.28,-13.82 0,-19.1 -2.64,-2.64 -6.09,-3.96 -9.55,-3.96" style="fill:#250008;fill-opacity:1;fill-rule:nonzero;stroke:none" id="path478"/>
      <path d="m 8520.46,8334.2 c -3.46,0 -6.91,1.32 -9.55,3.96 -5.27,5.27 -5.27,13.82 0,19.1 l 89.65,89.64 c 5.28,5.27 13.82,5.27 19.1,0 5.27,-5.27 5.27,-13.82 0,-19.1 l -89.65,-89.64 c -2.64,-2.64 -6.09,-3.96 -9.55,-3.96" style="fill:#250008;fill-opacity:1;fill-rule:nonzero;stroke:none" id="path480"/>
      <path d="m 9357.8,9171.54 c -3.45,0 -6.91,1.32 -9.55,3.96 -5.27,5.28 -5.27,13.82 0,19.1 l 89.65,89.65 c 5.28,5.28 13.83,5.28 19.1,0 5.28,-5.28 5.28,-13.82 0,-19.1 l -89.65,-89.65 c -2.64,-2.64 -6.09,-3.96 -9.55,-3.96" style="fill:#250008;fill-opacity:1;fill-rule:nonzero;stroke:none" id="path482"/>
      <path d="m 8983.91,8848.31 c -5.52,0 -10.71,-1.18 -15.4,-3.49 -13.22,-6.1 -21.56,-19.24 -21.56,-33.57 0,-3.07 0.36,-6.01 1.06,-8.76 2.86,-11.78 11.24,-21.34 22.48,-25.78 4.14,-1.67 8.74,-2.53 13.42,-2.53 20.44,0 37.06,16.63 37.06,37.07 0,14.25 -8.37,27.39 -21.33,33.47 -4.97,2.4 -10.2,3.59 -15.73,3.59 z m 0,-101.14 c -8.22,0 -16.11,1.5 -23.43,4.46 -19.31,7.62 -33.8,24.21 -38.68,44.32 -1.22,4.77 -1.86,9.97 -1.86,15.3 0,24.83 14.5,47.58 36.94,57.95 16.24,8 37.3,8.18 54.38,-0.1 22.25,-10.42 36.73,-33.17 36.73,-57.85 0,-35.34 -28.75,-64.08 -64.08,-64.08" style="fill:#250008;fill-opacity:1;fill-rule:nonzero;stroke:none" id="path484"/>
      <path d="m 9243.57,8538.08 c -3.46,0 -6.91,1.32 -9.55,3.96 l -223.88,223.87 c -5.27,5.29 -5.27,13.83 0,19.1 5.28,5.28 13.83,5.28 19.1,0 l 223.88,-223.87 c 5.27,-5.28 5.27,-13.82 0,-19.1 -2.64,-2.64 -6.1,-3.96 -9.55,-3.96" style="fill:#250008;fill-opacity:1;fill-rule:nonzero;stroke:none" id="path486"/>
      <path d="m 9005.37,9189.33 v -332.38 c -6.55,3.17 -13.81,4.86 -21.46,4.86 -7.65,0 -14.9,-1.69 -21.36,-4.86 v 332.38 c 0,11.83 9.59,21.41 21.41,21.41 v 0 c 11.83,0 21.41,-9.58 21.41,-21.41" style="fill:#000000;fill-opacity:1;fill-rule:nonzero;stroke:none" id="path488"/>
      <path d="m 9277.27,9521.43 c 31.57,-13.01 62.44,-28.27 92.08,-45.52 l 49.4,135.69 -96.01,34.97 z m 99.19,-78.99 c -2.46,0 -4.91,0.66 -7.05,1.98 -36.34,22.23 -74.76,41.33 -114.22,56.77 -6.82,2.67 -10.28,10.29 -7.77,17.19 l 54.54,150.12 c 1.23,3.37 3.74,6.12 6.98,7.62 3.25,1.52 6.97,1.68 10.33,0.45 l 121.42,-44.21 c 7.01,-2.55 10.62,-10.29 8.07,-17.31 l -59.61,-163.73 c -1.39,-3.82 -4.41,-6.79 -8.24,-8.13 -1.45,-0.51 -2.95,-0.75 -4.45,-0.75" style="fill:#250008;fill-opacity:1;fill-rule:nonzero;stroke:none" id="path492"/>
      <path d="m 8548.57,9609.51 48.81,-134.18 c 29.5,17.21 60.37,32.55 92.09,45.75 l -44.87,123.32 z m 41.71,-167.68 c -1.5,0 -3,0.26 -4.45,0.76 -3.83,1.34 -6.86,4.32 -8.24,8.14 l -59.02,162.24 c -1.22,3.37 -1.06,7.08 0.46,10.33 1.51,3.25 4.25,5.76 7.62,6.99 l 121.41,44.11 c 7,2.56 14.75,-1.07 17.3,-8.08 l 53.95,-148.24 c 2.5,-6.87 -0.92,-14.48 -7.72,-17.17 -39.71,-15.74 -78.15,-34.93 -114.24,-57.08 -2.16,-1.31 -4.6,-2 -7.07,-2" style="fill:#250008;fill-opacity:1;fill-rule:nonzero;stroke:none" id="path496"/>
    </g>
  </g>
</svg>