<?xml version="1.0" encoding="utf-8"?>
<svg version="1.1" id="svg2" width="400px" height="400px" viewBox="0 0 400 400" xmlns="http://www.w3.org/2000/svg">
  <g id="g8" transform="matrix(1.333333, 0, 0, -1.333333, -666.516602, 1061.507324)">
    <g id="g10" transform="scale(0.1)">
      <path d="M 5892.61,6065.88 H 7474.3 v 1125.5 H 5892.61 Z m 1595.2,-27.01 H 5879.1 c -7.46,0 -13.5,6.06 -13.5,13.51 v 1152.51 c 0,7.45 6.04,13.5 13.5,13.5 h 1608.71 c 7.46,0 13.51,-6.05 13.51,-13.5 V 6052.38 c 0,-7.45 -6.05,-13.51 -13.51,-13.51" style="fill:#250008;fill-opacity:1;fill-rule:nonzero;stroke:none" id="path238"/>
      <path d="m 5982.65,6155.92 h 1401.61 v 945.42 H 5982.65 Z m 1415.12,-27.01 H 5969.14 c -7.46,0 -13.5,6.06 -13.5,13.51 v 972.43 c 0,7.45 6.04,13.5 13.5,13.5 h 1428.63 c 7.46,0 13.51,-6.05 13.51,-13.5 v -972.43 c 0,-7.45 -6.05,-13.51 -13.51,-13.51" style="fill:#250008;fill-opacity:1;fill-rule:nonzero;stroke:none" id="path240"/>
      <path d="m 6104.2,6878.49 c -7.46,0 -13.5,6.05 -13.5,13.51 v 87.79 c 0,7.45 6.04,13.51 13.5,13.51 h 97.54 c 7.47,0 13.51,-6.06 13.51,-13.51 0,-7.46 -6.04,-13.51 -13.51,-13.51 h -84.03 V 6892 c 0,-7.46 -6.05,-13.51 -13.51,-13.51" style="fill:#250008;fill-opacity:1;fill-rule:nonzero;stroke:none" id="path242"/>
      <path d="m 7262.71,6869.67 c -7.46,0 -13.5,6.05 -13.5,13.51 v 84.04 h -74.29 c -7.46,0 -13.5,6.05 -13.5,13.51 0,7.45 6.04,13.5 13.5,13.5 h 87.79 c 7.46,0 13.51,-6.05 13.51,-13.5 v -97.55 c 0,-7.46 -6.05,-13.51 -13.51,-13.51" style="fill:#250008;fill-opacity:1;fill-rule:nonzero;stroke:none" id="path244"/>
      <path d="m 7262.71,6263.97 h -97.54 c -7.46,0 -13.51,6.05 -13.51,13.51 0,7.46 6.05,13.5 13.51,13.5 h 84.04 v 74.29 c 0,7.45 6.04,13.5 13.5,13.5 7.46,0 13.51,-6.05 13.51,-13.5 v -87.79 c 0,-7.46 -6.05,-13.51 -13.51,-13.51" style="fill:#250008;fill-opacity:1;fill-rule:nonzero;stroke:none" id="path246"/>
      <path d="m 6191.99,6263.97 h -87.79 c -7.46,0 -13.5,6.05 -13.5,13.51 v 97.54 c 0,7.47 6.04,13.51 13.5,13.51 7.46,0 13.51,-6.04 13.51,-13.51 v -84.04 h 74.28 c 7.46,0 13.5,-6.04 13.5,-13.5 0,-7.46 -6.04,-13.51 -13.5,-13.51" style="fill:#250008;fill-opacity:1;fill-rule:nonzero;stroke:none" id="path248"/>
      <path d="m 5523.44,6065.88 h 342.16 v 1125.5 h -342.16 z m 355.66,-27.01 h -369.16 c -7.46,0 -13.51,6.06 -13.51,13.51 v 1152.51 c 0,7.45 6.05,13.5 13.51,13.5 h 369.16 c 7.46,0 13.51,-6.05 13.51,-13.5 V 6052.38 c 0,-7.45 -6.05,-13.51 -13.51,-13.51" style="fill:#250008;fill-opacity:1;fill-rule:nonzero;stroke:none" id="path250"/>
      <path d="m 5694.52,6733.68 c -57.92,0 -105.05,-47.12 -105.05,-105.05 0,-57.92 47.13,-105.05 105.05,-105.05 57.92,0 105.05,47.13 105.05,105.05 0,57.93 -47.13,105.05 -105.05,105.05 z m 0,-237.11 c -72.81,0 -132.06,59.24 -132.06,132.06 0,72.82 59.25,132.06 132.06,132.06 72.82,0 132.06,-59.24 132.06,-132.06 0,-72.82 -59.24,-132.06 -132.06,-132.06" style="fill:#250008;fill-opacity:1;fill-rule:nonzero;stroke:none" id="path252"/>
      <path d="m 5616.49,7062.33 h 156.07 v 39.01 h -156.07 z m 169.58,-27.01 h -183.09 c -7.46,0 -13.51,6.04 -13.51,13.5 v 66.03 c 0,7.45 6.05,13.5 13.51,13.5 h 183.09 c 7.46,0 13.5,-6.05 13.5,-13.5 v -66.03 c 0,-7.46 -6.04,-13.5 -13.5,-13.5" style="fill:#250008;fill-opacity:1;fill-rule:nonzero;stroke:none" id="path254"/>
      <path d="m 5616.49,6901 h 156.07 v 39.01 h -156.07 z m 169.58,-27.01 h -183.09 c -7.46,0 -13.51,6.04 -13.51,13.51 v 66.02 c 0,7.46 6.05,13.51 13.51,13.51 h 183.09 c 7.46,0 13.5,-6.05 13.5,-13.51 v -66.02 c 0,-7.47 -6.04,-13.51 -13.5,-13.51" style="fill:#250008;fill-opacity:1;fill-rule:nonzero;stroke:none" id="path256"/>
      <path d="m 5616.49,6322.5 h 156.07 v 39.02 h -156.07 z m 169.58,-27.02 h -183.09 c -7.46,0 -13.51,6.06 -13.51,13.51 v 66.03 c 0,7.47 6.05,13.51 13.51,13.51 h 183.09 c 7.46,0 13.5,-6.04 13.5,-13.51 v -66.03 c 0,-7.45 -6.04,-13.51 -13.5,-13.51" style="fill:#250008;fill-opacity:1;fill-rule:nonzero;stroke:none" id="path258"/>
      <path d="m 5616.49,6161.19 h 156.07 v 39.01 h -156.07 z m 169.58,-27.01 h -183.09 c -7.46,0 -13.51,6.04 -13.51,13.5 v 66.03 c 0,7.45 6.05,13.5 13.51,13.5 h 183.09 c 7.46,0 13.5,-6.05 13.5,-13.5 v -66.03 c 0,-7.46 -6.04,-13.5 -13.5,-13.5" style="fill:#250008;fill-opacity:1;fill-rule:nonzero;stroke:none" id="path260"/>
      <path d="m 5799.54,5731.27 h 1425.68 v 168.01 H 5799.54 Z m 1439.19,-27.01 h -1452.7 c -7.46,0 -13.5,6.05 -13.5,13.51 v 195.02 c 0,7.46 6.04,13.5 13.5,13.5 h 1452.7 c 7.46,0 13.5,-6.04 13.5,-13.5 v -195.02 c 0,-7.46 -6.04,-13.51 -13.5,-13.51" style="fill:#250008;fill-opacity:1;fill-rule:nonzero;stroke:none" id="path262"/>
      <path d="m 6670.67,5731.27 h 554.55 v 168.01 h -554.55 z m 568.06,-27.01 h -581.57 c -7.46,0 -13.5,6.05 -13.5,13.51 v 195.02 c 0,7.46 6.04,13.5 13.5,13.5 h 581.57 c 7.46,0 13.5,-6.04 13.5,-13.5 v -195.02 c 0,-7.46 -6.04,-13.51 -13.5,-13.51" style="fill:#250008;fill-opacity:1;fill-rule:nonzero;stroke:none" id="path264"/>
      <path d="m 5613.48,5782.26 h 159.08 v 66.03 h -159.08 z m 172.59,-27.01 h -186.09 c -7.46,0 -13.51,6.05 -13.51,13.51 v 93.03 c 0,7.46 6.05,13.51 13.51,13.51 h 186.09 c 7.46,0 13.5,-6.05 13.5,-13.51 v -93.03 c 0,-7.46 -6.04,-13.51 -13.5,-13.51" style="fill:#250008;fill-opacity:1;fill-rule:nonzero;stroke:none" id="path266"/>
      <path d="m 6002.16,5834.78 c -10.76,0 -19.51,-8.75 -19.51,-19.5 0,-10.76 8.75,-19.51 19.51,-19.51 h 120.05 c 10.76,0 19.51,8.75 19.51,19.51 0,10.75 -8.75,19.5 -19.51,19.5 z m 120.05,-66.02 h -120.05 c -25.65,0 -46.52,20.87 -46.52,46.52 0,25.65 20.87,46.51 46.52,46.51 h 120.05 c 25.65,0 46.52,-20.86 46.52,-46.51 0,-25.65 -20.87,-46.52 -46.52,-46.52" style="fill:#250008;fill-opacity:1;fill-rule:nonzero;stroke:none" id="path268"/>
      <path d="m 7252.2,5893.02 v -155.5 l 198.57,77.76 z m -13.5,-188.8 c -2.68,0 -5.34,0.8 -7.61,2.36 -3.69,2.51 -5.9,6.69 -5.9,11.15 v 195.09 c 0,4.47 2.21,8.64 5.89,11.16 3.69,2.51 8.38,3.05 12.54,1.42 l 249.11,-97.54 c 5.18,-2.02 8.59,-7.02 8.59,-12.58 0,-5.56 -3.41,-10.55 -8.59,-12.57 l -249.11,-97.55 c -1.59,-0.62 -3.26,-0.94 -4.92,-0.94" style="fill:#250008;fill-opacity:1;fill-rule:nonzero;stroke:none" id="path270"/>
    </g>
  </g>
</svg>