<?xml version="1.0" encoding="utf-8"?>
<svg version="1.1" id="svg2" width="220px" height="250px" viewBox="0 0 220 250" xmlns="http://www.w3.org/2000/svg">
  <g id="g8" transform="matrix(1.333333, 0, 0, -1.333333, 25.34935, 1424.463257)">
    <g id="g10" transform="scale(0.1)">
      <path d="M 1232.26 9808.522 L 1232.26 9707.592 C 1232.26 9388.302 973.42 9129.452 654.12 9129.452 L 615.64 9129.452 C 296.35 9129.452 37.5 9388.302 37.5 9707.592 L 37.5 9808.522 L 37.5 9811.082 L 37.5 9859.152 C 37.5 9956.672 116.56 10035.732 214.08 10035.732 L 443.42 10035.732 C 505.45 10035.732 555.74 9985.442 555.74 9923.402 C 555.74 9861.372 505.45 9811.082 443.42 9811.082 L 318.32 9811.082 L 318.33 9808.522 L 318.33 9760.442 C 318.33 9662.922 412.7 9583.872 510.22 9583.872" style="fill:none;stroke:#000018;stroke-width:30;stroke-linecap:round;stroke-linejoin:round;stroke-miterlimit:10;stroke-dasharray:none;stroke-opacity:1" id="path162"/>
      <path d="M 1232.26 9920.842 L 1232.26 9844.262 C 1232.26 9782.232 1181.97 9731.942 1119.93 9731.942 C 1057.9 9731.942 1007.6 9782.232 1007.6 9844.262 L 1007.6 10137.852 C 1007.6 10199.892 1057.9 10250.172 1119.93 10250.172 C 1181.97 10250.172 1232.26 10199.892 1232.26 10137.852 L 1232.26 9920.842" style="fill:none;stroke:#000018;stroke-width:30;stroke-linecap:round;stroke-linejoin:round;stroke-miterlimit:10;stroke-dasharray:none;stroke-opacity:1" id="path164"/>
      <path d="M 895.28 10321.652 C 957.32 10321.652 1007.6 10271.362 1007.6 10209.332 L 1007.6 9831.502 C 1007.6 9769.472 957.32 9719.172 895.28 9719.172 C 833.24 9719.172 782.95 9769.472 782.95 9831.502 L 782.95 10209.332 C 782.95 10271.362 833.24 10321.652 895.28 10321.652 Z" style="fill:none;stroke:#000018;stroke-width:30;stroke-linecap:round;stroke-linejoin:round;stroke-miterlimit:10;stroke-dasharray:none;stroke-opacity:1" id="path166"/>
      <path d="M 318.32 10035.742 L 318.32 10209.332 C 318.32 10271.362 372.04 10321.652 438.31 10321.652 C 504.58 10321.652 558.3 10271.362 558.3 10209.332 L 558.3 9831.502 C 558.3 9769.472 504.58 9719.172 438.31 9719.172 C 372.04 9719.172 318.33 9746.492 318.33 9808.522" style="fill:none;stroke:#000018;stroke-width:30;stroke-linecap:round;stroke-linejoin:round;stroke-miterlimit:10;stroke-dasharray:none;stroke-opacity:1" id="path168"/>
      <path d="M 670.62 10362.502 C 732.66 10362.502 782.95 10312.212 782.95 10250.172 L 782.95 9831.502 C 782.95 9769.472 732.66 9719.172 670.62 9719.172 C 608.59 9719.172 558.3 9769.472 558.3 9831.502 L 558.3 10250.172 C 558.3 10312.212 608.59 10362.502 670.62 10362.502 Z" style="fill:none;stroke:#000018;stroke-width:30;stroke-linecap:round;stroke-linejoin:round;stroke-miterlimit:10;stroke-dasharray:none;stroke-opacity:1" id="path170"/>
    </g>
  </g>
</svg>