<?xml version="1.0" encoding="utf-8"?>
<svg version="1.1" id="svg2" width="400px" height="400px" viewBox="0 0 400 400" xmlns="http://www.w3.org/2000/svg">
  <g id="g8" transform="matrix(1.3333333,0,0,-1.3333333,0,1386.6667)">
    <g id="g10" transform="scale(0.1)">
      <path d="M 988.796 8672.153 L 2011.204 8672.153 L 2011.204 9192.371 L 988.796 9192.371 L 988.796 8672.153 Z M 2029.345 8632.261 L 970.641 8632.261 C 960.616 8632.261 952.499 8641.198 952.499 8652.213 L 952.499 9212.325 C 952.499 9223.325 960.616 9232.261 970.641 9232.261 L 2029.345 9232.261 C 2039.37 9232.261 2047.5 9223.325 2047.5 9212.325 L 2047.5 8652.213 C 2047.5 8641.198 2039.37 8632.261 2029.345 8632.261" style="fill:#250008;fill-opacity:1;fill-rule:nonzero;stroke:none" id="path360"/>
      <path d="M 1081.797 8771.573 L 1925.778 8771.573 L 1925.778 9085.549 L 1081.797 9085.549 L 1081.797 8771.573 Z M 1945.397 8722.311 L 1062.164 8722.311 C 1051.322 8722.311 1042.53 8733.344 1042.53 8746.951 L 1042.53 9110.189 C 1042.53 9123.777 1051.322 9134.811 1062.164 9134.811 L 1945.397 9134.811 C 1956.238 9134.811 1965.03 9123.777 1965.03 9110.189 L 1965.03 8746.951 C 1965.03 8733.344 1956.238 8722.311 1945.397 8722.311" style="fill:#250008;fill-opacity:1;fill-rule:nonzero;stroke:none" id="path362"/>
      <path d="M 1069.55 8594.751 L 1164.09 8594.751 L 1164.09 8632.261 L 1069.55 8632.261 L 1069.55 8594.751 Z M 1177.59 8567.741 L 1056.04 8567.741 C 1048.58 8567.741 1042.53 8573.791 1042.53 8581.251 L 1042.53 8645.771 C 1042.53 8653.231 1048.58 8659.271 1056.04 8659.271 L 1177.59 8659.271 C 1185.05 8659.271 1191.1 8653.231 1191.1 8645.771 L 1191.1 8581.251 C 1191.1 8573.791 1185.05 8567.741 1177.59 8567.741" style="fill:#250008;fill-opacity:1;fill-rule:nonzero;stroke:none" id="path364"/>
      <path d="M 1846.11 8594.751 L 1940.65 8594.751 L 1940.65 8632.261 L 1846.11 8632.261 L 1846.11 8594.751 Z M 1954.15 8567.741 L 1832.6 8567.741 C 1825.14 8567.741 1819.1 8573.791 1819.1 8581.251 L 1819.1 8645.771 C 1819.1 8653.231 1825.14 8659.271 1832.6 8659.271 L 1954.15 8659.271 C 1961.61 8659.271 1967.66 8653.231 1967.66 8645.771 L 1967.66 8581.251 C 1967.66 8573.791 1961.61 8567.741 1954.15 8567.741" style="fill:#250008;fill-opacity:1;fill-rule:nonzero;stroke:none" id="path366"/>
      <path d="M 9054.262 -4372.39 Q 9053.258 -4372.39 9052.439 -4372.932 Q 9051.62 -4373.473 9051.118 -4374.345 Q 9050.616 -4375.217 9050.616 -4376.194 L 9050.616 -4387.686 Q 9050.616 -4388.716 9051.118 -4389.548 Q 9051.62 -4390.38 9052.439 -4390.895 Q 9053.258 -4391.41 9054.262 -4391.41 L 9065.806 -4391.41 Q 9066.81 -4391.41 9067.629 -4390.895 Q 9068.448 -4390.38 9068.95 -4389.548 Q 9069.451 -4388.716 9069.451 -4387.686 L 9069.451 -4376.194 Q 9069.451 -4375.217 9068.95 -4374.345 Q 9068.448 -4373.473 9067.629 -4372.932 Q 9066.81 -4372.39 9065.806 -4372.39 L 9054.262 -4372.39 Z M 9055.662 -4376.036 L 9055.662 -4376.036 L 9065.674 -4376.036 Q 9065.806 -4376.036 9065.898 -4376.128 Q 9065.991 -4376.221 9065.991 -4376.353 L 9065.991 -4384.648 Z M 9054.077 -4379.259 L 9054.077 -4379.259 L 9064.406 -4387.87 L 9054.394 -4387.87 Q 9054.262 -4387.87 9054.169 -4387.778 Q 9054.077 -4387.686 9054.077 -4387.553 Z M 9076.288 -4372.39 Q 9075.284 -4372.39 9074.465 -4372.932 Q 9073.646 -4373.473 9073.144 -4374.345 Q 9072.642 -4375.217 9072.642 -4376.194 L 9072.642 -4387.686 Q 9072.642 -4388.716 9073.144 -4389.548 Q 9073.646 -4390.38 9074.465 -4390.895 Q 9075.284 -4391.41 9076.288 -4391.41 L 9087.832 -4391.41 Q 9088.836 -4391.41 9089.655 -4390.895 Q 9090.474 -4390.38 9090.976 -4389.548 Q 9091.478 -4388.716 9091.478 -4387.686 L 9091.478 -4376.194 Q 9091.478 -4375.217 9090.976 -4374.345 Q 9090.474 -4373.473 9089.655 -4372.932 Q 9088.836 -4372.39 9087.832 -4372.39 L 9076.288 -4372.39 Z M 9077.688 -4376.036 L 9077.688 -4376.036 L 9087.7 -4376.036 Q 9087.832 -4376.036 9087.925 -4376.128 Q 9088.017 -4376.221 9088.017 -4376.353 L 9088.017 -4384.648 Z M 9076.103 -4379.259 L 9076.103 -4379.259 L 9086.432 -4387.87 L 9076.42 -4387.87 Q 9076.288 -4387.87 9076.196 -4387.778 Q 9076.103 -4387.686 9076.103 -4387.553 Z" transform="matrix(9.204968, 0, 0, -11.110307, -81987.710937, -39759.667969)" style="fill: rgb(51, 51, 51); line-height: 42.2673px; stroke-width: 10.6616px; white-space: pre;"/>
    </g>
  </g>
</svg>