<?xml version="1.0" encoding="utf-8"?>
<svg version="1.1" id="svg2" width="400px" height="400px" viewBox="0 0 400 400" xmlns="http://www.w3.org/2000/svg">
  <g id="g8" transform="matrix(1.333333, 0, 0, -1.333333, -3.826933, 1392.853882)">
    <g id="g10" transform="scale(0.1)">
      <path d="m 558.527,9836.66 c -17.379,0 -31.511,-14.13 -31.511,-31.51 V 8513.08 c 0,-17.37 14.132,-31.51 31.511,-31.51 H 2498.87 c 17.38,0 31.52,14.14 31.52,31.51 v 1292.07 c 0,17.38 -14.14,31.51 -31.52,31.51 z M 2498.87,8454.56 H 558.527 c -32.273,0 -58.523,26.26 -58.523,58.52 v 1292.07 c 0,32.27 26.25,58.53 58.523,58.53 H 2498.87 c 32.27,0 58.53,-26.26 58.53,-58.53 V 8513.08 c 0,-32.26 -26.26,-58.52 -58.53,-58.52" style="fill:#250008;fill-opacity:1;fill-rule:nonzero;stroke:none" id="path16"/>
      <path d="M 630.559,8625.63 H 743.105 V 9692.61 H 630.559 Z m 126.054,-27.01 H 617.055 c -7.461,0 -13.508,6.05 -13.508,13.5 v 1093.99 c 0,7.45 6.047,13.51 13.508,13.51 h 139.558 c 7.457,0 13.504,-6.06 13.504,-13.51 V 8612.12 c 0,-7.45 -6.047,-13.5 -13.504,-13.5" style="fill:#250008;fill-opacity:1;fill-rule:nonzero;stroke:none" id="path18"/>
      <path d="m 959.926,9066 h 201.004 v 199.28 c 0,7.46 6.05,13.5 13.51,13.5 h 815.04 v 410.81 H 959.926 Z m 214.514,-27.01 H 946.418 c -7.461,0 -13.508,6.04 -13.508,13.51 v 650.59 c 0,7.45 6.047,13.51 13.508,13.51 H 2002.99 c 7.46,0 13.5,-6.06 13.5,-13.51 v -437.81 c 0,-7.45 -6.04,-13.51 -13.5,-13.51 H 1187.95 V 9052.5 c 0,-7.47 -6.05,-13.51 -13.51,-13.51" style="fill:#250008;fill-opacity:1;fill-rule:nonzero;stroke:none" id="path20"/>
      <path d="M 959.953,9607.14 H 1989.45 v 82.45 H 959.953 Z M 2002.96,9580.13 H 946.445 c -7.461,0 -13.504,6.05 -13.504,13.51 v 109.45 c 0,7.45 6.043,13.51 13.504,13.51 H 2002.96 c 7.45,0 13.5,-6.06 13.5,-13.51 v -109.45 c 0,-7.46 -6.05,-13.51 -13.5,-13.51" style="fill:#250008;fill-opacity:1;fill-rule:nonzero;stroke:none" id="path22"/>
      <path d="M 1187.95,8628.19 H 2217.5 v 514.13 H 1187.95 Z m 1043.06,-27.01 H 1174.44 c -7.46,0 -13.51,6.05 -13.51,13.5 v 541.15 c 0,7.46 6.05,13.5 13.51,13.5 h 1056.57 c 7.46,0 13.5,-6.04 13.5,-13.5 v -541.15 c 0,-7.45 -6.04,-13.5 -13.5,-13.5" style="fill:#250008;fill-opacity:1;fill-rule:nonzero;stroke:none" id="path24"/>
      <path d="M 1187.95,9169.33 H 2217.5 v 82.44 H 1187.95 Z m 1043.06,-27.01 H 1174.44 c -7.46,0 -13.51,6.05 -13.51,13.51 v 109.45 c 0,7.46 6.05,13.5 13.51,13.5 h 1056.57 c 7.46,0 13.5,-6.04 13.5,-13.5 v -109.45 c 0,-7.46 -6.04,-13.51 -13.5,-13.51" style="fill:#250008;fill-opacity:1;fill-rule:nonzero;stroke:none" id="path26"/>
      <path d="m 1463.42,8197.94 h 130.56 v 256.62 h -130.56 z m 144.06,-27.01 h -157.57 c -7.45,0 -13.5,6.06 -13.5,13.51 v 283.62 c 0,7.46 6.05,13.51 13.5,13.51 h 157.57 c 7.46,0 13.51,-6.05 13.51,-13.51 v -283.62 c 0,-7.45 -6.05,-13.51 -13.51,-13.51" style="fill:#250008;fill-opacity:1;fill-rule:nonzero;stroke:none" id="path28"/>
      <path d="m 1108.14,8170.93 c -31.65,0 -57.4,-25.74 -57.4,-57.4 0,-31.65 25.75,-57.39 57.4,-57.39 h 841.12 c 31.65,0 57.4,25.74 57.4,57.39 0,31.66 -25.75,57.4 -57.4,57.4 z m 841.12,-141.8 h -841.12 c -46.54,0 -84.41,37.87 -84.41,84.4 0,46.54 37.87,84.41 84.41,84.41 h 841.12 c 46.54,0 84.41,-37.87 84.41,-84.41 0,-46.53 -37.87,-84.4 -84.41,-84.4" style="fill:#250008;fill-opacity:1;fill-rule:nonzero;stroke:none" id="path30"/>
      <path d="m 2131.96,9391.29 h 298.29 v 298.3 h -298.29 z m 311.8,-27.01 h -325.3 c -7.46,0 -13.51,6.05 -13.51,13.51 v 325.3 c 0,7.45 6.05,13.51 13.51,13.51 h 325.3 c 7.46,0 13.5,-6.06 13.5,-13.51 v -325.3 c 0,-7.46 -6.04,-13.51 -13.5,-13.51" style="fill:#250008;fill-opacity:1;fill-rule:nonzero;stroke:none" id="path32"/>
      <path d="m 2131.96,9607.14 h 298.29 v 82.45 h -298.29 z m 311.8,-27.01 h -325.3 c -7.46,0 -13.51,6.05 -13.51,13.51 v 109.45 c 0,7.45 6.05,13.51 13.51,13.51 h 325.3 c 7.46,0 13.5,-6.06 13.5,-13.51 v -109.45 c 0,-7.46 -6.04,-13.51 -13.5,-13.51" style="fill:#250008;fill-opacity:1;fill-rule:nonzero;stroke:none" id="path34"/>
    </g>
  </g>
</svg>